<mxfile host="app.diagrams.net" modified="2021-02-25T11:40:08.740Z" agent="5.0 (Windows)" etag="X6N7Hp2Ygqf_iiayYIbF" version="14.4.2" type="github">
  <diagram id="9yBxZeoPjb4uYD_nnHj8" name="Page-1">
    <mxGraphModel dx="1480" dy="752" grid="1" gridSize="9" guides="1" tooltips="1" connect="1" arrows="1" fold="1" page="1" pageScale="1" pageWidth="2000" pageHeight="2000" math="0" shadow="0">
      <root>
        <mxCell id="0" />
        <mxCell id="1" parent="0" />
        <mxCell id="fFZW_oCPpxYMm6qtP-ck-10" style="edgeStyle=orthogonalEdgeStyle;rounded=0;orthogonalLoop=1;jettySize=auto;html=1;entryX=0.5;entryY=0;entryDx=0;entryDy=0;fontSize=20;" parent="1" source="fFZW_oCPpxYMm6qtP-ck-1" target="fFZW_oCPpxYMm6qtP-ck-7" edge="1">
          <mxGeometry relative="1" as="geometry">
            <Array as="points">
              <mxPoint x="864" y="185" />
              <mxPoint x="680" y="185" />
            </Array>
          </mxGeometry>
        </mxCell>
        <mxCell id="fFZW_oCPpxYMm6qtP-ck-11" style="edgeStyle=orthogonalEdgeStyle;rounded=0;orthogonalLoop=1;jettySize=auto;html=1;entryX=0.5;entryY=0;entryDx=0;entryDy=0;fontSize=20;" parent="1" source="fFZW_oCPpxYMm6qtP-ck-1" target="fFZW_oCPpxYMm6qtP-ck-8" edge="1">
          <mxGeometry relative="1" as="geometry">
            <Array as="points">
              <mxPoint x="936" y="184" />
              <mxPoint x="1000" y="184" />
            </Array>
          </mxGeometry>
        </mxCell>
        <mxCell id="fFZW_oCPpxYMm6qtP-ck-12" style="edgeStyle=orthogonalEdgeStyle;rounded=0;orthogonalLoop=1;jettySize=auto;html=1;entryX=0.5;entryY=0;entryDx=0;entryDy=0;fontSize=20;" parent="1" source="fFZW_oCPpxYMm6qtP-ck-1" target="fFZW_oCPpxYMm6qtP-ck-9" edge="1">
          <mxGeometry relative="1" as="geometry" />
        </mxCell>
        <mxCell id="fFZW_oCPpxYMm6qtP-ck-13" style="edgeStyle=orthogonalEdgeStyle;rounded=0;orthogonalLoop=1;jettySize=auto;html=1;entryX=0.5;entryY=0;entryDx=0;entryDy=0;fontSize=20;" parent="1" source="fFZW_oCPpxYMm6qtP-ck-1" target="fFZW_oCPpxYMm6qtP-ck-2" edge="1">
          <mxGeometry relative="1" as="geometry" />
        </mxCell>
        <mxCell id="fFZW_oCPpxYMm6qtP-ck-1" value="&lt;font style=&quot;font-size: 20px&quot;&gt;CRAFTX&lt;/font&gt;" style="rounded=0;whiteSpace=wrap;html=1;fontStyle=1;strokeWidth=3;" parent="1" vertex="1">
          <mxGeometry x="828" y="72" width="144" height="72" as="geometry" />
        </mxCell>
        <mxCell id="fFZW_oCPpxYMm6qtP-ck-18" style="edgeStyle=orthogonalEdgeStyle;rounded=0;orthogonalLoop=1;jettySize=auto;html=1;entryX=0.5;entryY=0;entryDx=0;entryDy=0;fontSize=20;" parent="1" source="fFZW_oCPpxYMm6qtP-ck-2" target="fFZW_oCPpxYMm6qtP-ck-17" edge="1">
          <mxGeometry relative="1" as="geometry" />
        </mxCell>
        <mxCell id="fFZW_oCPpxYMm6qtP-ck-2" value="login" style="rounded=1;whiteSpace=wrap;html=1;strokeWidth=1;perimeterSpacing=0;shadow=0;sketch=0;glass=0;fontSize=20;labelBorderColor=none;fontStyle=0;horizontal=1;align=center;verticalAlign=middle;" parent="1" vertex="1">
          <mxGeometry x="234" y="225" width="153" height="72" as="geometry" />
        </mxCell>
        <mxCell id="fFZW_oCPpxYMm6qtP-ck-24" style="edgeStyle=orthogonalEdgeStyle;rounded=0;orthogonalLoop=1;jettySize=auto;html=1;entryX=0.5;entryY=0;entryDx=0;entryDy=0;fontSize=20;" parent="1" source="fFZW_oCPpxYMm6qtP-ck-7" target="fFZW_oCPpxYMm6qtP-ck-23" edge="1">
          <mxGeometry relative="1" as="geometry" />
        </mxCell>
        <mxCell id="fFZW_oCPpxYMm6qtP-ck-7" value="signup" style="rounded=1;whiteSpace=wrap;html=1;strokeWidth=1;perimeterSpacing=0;shadow=0;sketch=0;glass=0;fontSize=20;labelBorderColor=none;fontStyle=0;horizontal=1;align=center;verticalAlign=middle;" parent="1" vertex="1">
          <mxGeometry x="603" y="234" width="153" height="72" as="geometry" />
        </mxCell>
        <mxCell id="fFZW_oCPpxYMm6qtP-ck-8" value="home" style="rounded=1;whiteSpace=wrap;html=1;strokeWidth=1;perimeterSpacing=0;shadow=0;sketch=0;glass=0;fontSize=20;labelBorderColor=none;fontStyle=0;horizontal=1;align=center;verticalAlign=middle;" parent="1" vertex="1">
          <mxGeometry x="923" y="225" width="153" height="72" as="geometry" />
        </mxCell>
        <mxCell id="fFZW_oCPpxYMm6qtP-ck-9" value="faq" style="rounded=1;whiteSpace=wrap;html=1;strokeWidth=1;perimeterSpacing=0;shadow=0;sketch=0;glass=0;fontSize=20;labelBorderColor=none;fontStyle=0;horizontal=1;align=center;verticalAlign=middle;" parent="1" vertex="1">
          <mxGeometry x="1197" y="225" width="153" height="72" as="geometry" />
        </mxCell>
        <mxCell id="fFZW_oCPpxYMm6qtP-ck-21" value="if TRUE" style="edgeStyle=orthogonalEdgeStyle;rounded=0;orthogonalLoop=1;jettySize=auto;html=1;entryX=0.5;entryY=0;entryDx=0;entryDy=0;fontSize=20;" parent="1" source="fFZW_oCPpxYMm6qtP-ck-15" target="fFZW_oCPpxYMm6qtP-ck-16" edge="1">
          <mxGeometry relative="1" as="geometry" />
        </mxCell>
        <mxCell id="fFZW_oCPpxYMm6qtP-ck-22" value="if FALSE" style="edgeStyle=orthogonalEdgeStyle;rounded=0;orthogonalLoop=1;jettySize=auto;html=1;entryX=0;entryY=0.5;entryDx=0;entryDy=0;fontSize=20;" parent="1" source="fFZW_oCPpxYMm6qtP-ck-15" target="fFZW_oCPpxYMm6qtP-ck-2" edge="1">
          <mxGeometry relative="1" as="geometry">
            <Array as="points">
              <mxPoint x="126" y="603" />
              <mxPoint x="126" y="261" />
            </Array>
          </mxGeometry>
        </mxCell>
        <mxCell id="fFZW_oCPpxYMm6qtP-ck-15" value="login.py" style="rounded=1;whiteSpace=wrap;html=1;strokeWidth=1;perimeterSpacing=0;shadow=0;sketch=0;glass=0;fontSize=20;labelBorderColor=none;fontStyle=0;horizontal=1;align=center;verticalAlign=middle;" parent="1" vertex="1">
          <mxGeometry x="234" y="567" width="153" height="72" as="geometry" />
        </mxCell>
        <mxCell id="fFZW_oCPpxYMm6qtP-ck-32" style="edgeStyle=orthogonalEdgeStyle;rounded=0;sketch=1;orthogonalLoop=1;jettySize=auto;html=1;entryX=0.5;entryY=0;entryDx=0;entryDy=0;fontSize=20;" parent="1" source="fFZW_oCPpxYMm6qtP-ck-16" target="fFZW_oCPpxYMm6qtP-ck-31" edge="1">
          <mxGeometry relative="1" as="geometry" />
        </mxCell>
        <mxCell id="fFZW_oCPpxYMm6qtP-ck-33" style="edgeStyle=orthogonalEdgeStyle;rounded=0;sketch=1;orthogonalLoop=1;jettySize=auto;html=1;entryX=0.5;entryY=0;entryDx=0;entryDy=0;fontSize=20;" parent="1" source="fFZW_oCPpxYMm6qtP-ck-16" target="fFZW_oCPpxYMm6qtP-ck-29" edge="1">
          <mxGeometry relative="1" as="geometry" />
        </mxCell>
        <mxCell id="fFZW_oCPpxYMm6qtP-ck-34" style="edgeStyle=orthogonalEdgeStyle;rounded=0;sketch=1;orthogonalLoop=1;jettySize=auto;html=1;entryX=0.5;entryY=0;entryDx=0;entryDy=0;fontSize=20;" parent="1" source="fFZW_oCPpxYMm6qtP-ck-16" target="fFZW_oCPpxYMm6qtP-ck-30" edge="1">
          <mxGeometry relative="1" as="geometry" />
        </mxCell>
        <mxCell id="fFZW_oCPpxYMm6qtP-ck-16" value="user_home" style="rounded=1;whiteSpace=wrap;html=1;strokeWidth=3;perimeterSpacing=0;shadow=0;sketch=0;glass=0;fontSize=20;labelBorderColor=none;fontStyle=0;horizontal=1;align=center;verticalAlign=middle;" parent="1" vertex="1">
          <mxGeometry x="234" y="774" width="153" height="72" as="geometry" />
        </mxCell>
        <mxCell id="fFZW_oCPpxYMm6qtP-ck-19" style="edgeStyle=orthogonalEdgeStyle;rounded=0;orthogonalLoop=1;jettySize=auto;html=1;entryX=0.5;entryY=0;entryDx=0;entryDy=0;fontSize=20;" parent="1" source="fFZW_oCPpxYMm6qtP-ck-17" target="fFZW_oCPpxYMm6qtP-ck-15" edge="1">
          <mxGeometry relative="1" as="geometry" />
        </mxCell>
        <mxCell id="fFZW_oCPpxYMm6qtP-ck-17" value="login.html" style="rounded=1;whiteSpace=wrap;html=1;strokeWidth=1;perimeterSpacing=0;shadow=0;sketch=0;glass=0;fontSize=20;labelBorderColor=none;fontStyle=0;horizontal=1;align=center;verticalAlign=middle;" parent="1" vertex="1">
          <mxGeometry x="234" y="396" width="153" height="72" as="geometry" />
        </mxCell>
        <mxCell id="fFZW_oCPpxYMm6qtP-ck-26" style="edgeStyle=orthogonalEdgeStyle;rounded=0;orthogonalLoop=1;jettySize=auto;html=1;entryX=0.5;entryY=0;entryDx=0;entryDy=0;fontSize=20;" parent="1" source="fFZW_oCPpxYMm6qtP-ck-23" target="fFZW_oCPpxYMm6qtP-ck-25" edge="1">
          <mxGeometry relative="1" as="geometry" />
        </mxCell>
        <mxCell id="fFZW_oCPpxYMm6qtP-ck-23" value="signup.html" style="rounded=1;whiteSpace=wrap;html=1;strokeWidth=1;perimeterSpacing=0;shadow=0;sketch=0;glass=0;fontSize=20;labelBorderColor=none;fontStyle=0;horizontal=1;align=center;verticalAlign=middle;" parent="1" vertex="1">
          <mxGeometry x="603" y="405" width="153" height="72" as="geometry" />
        </mxCell>
        <mxCell id="fFZW_oCPpxYMm6qtP-ck-27" value="if TRUE" style="edgeStyle=orthogonalEdgeStyle;rounded=0;orthogonalLoop=1;jettySize=auto;html=1;entryX=1;entryY=0.5;entryDx=0;entryDy=0;fontSize=20;" parent="1" source="fFZW_oCPpxYMm6qtP-ck-25" target="fFZW_oCPpxYMm6qtP-ck-17" edge="1">
          <mxGeometry relative="1" as="geometry" />
        </mxCell>
        <mxCell id="fFZW_oCPpxYMm6qtP-ck-28" value="if FALSE" style="edgeStyle=orthogonalEdgeStyle;rounded=0;orthogonalLoop=1;jettySize=auto;html=1;exitX=0;exitY=0.25;exitDx=0;exitDy=0;entryX=0;entryY=0.5;entryDx=0;entryDy=0;fontSize=20;" parent="1" source="fFZW_oCPpxYMm6qtP-ck-25" target="fFZW_oCPpxYMm6qtP-ck-7" edge="1">
          <mxGeometry relative="1" as="geometry">
            <Array as="points">
              <mxPoint x="549" y="594" />
              <mxPoint x="549" y="270" />
            </Array>
          </mxGeometry>
        </mxCell>
        <mxCell id="fFZW_oCPpxYMm6qtP-ck-25" value="signup.py" style="rounded=1;whiteSpace=wrap;html=1;strokeWidth=1;perimeterSpacing=0;shadow=0;sketch=0;glass=0;fontSize=20;labelBorderColor=none;fontStyle=0;horizontal=1;align=center;verticalAlign=middle;" parent="1" vertex="1">
          <mxGeometry x="603" y="576" width="153" height="72" as="geometry" />
        </mxCell>
        <mxCell id="fFZW_oCPpxYMm6qtP-ck-41" value="if fresh_user==TRUE" style="edgeStyle=orthogonalEdgeStyle;rounded=0;sketch=1;orthogonalLoop=1;jettySize=auto;html=1;exitX=1;exitY=0.5;exitDx=0;exitDy=0;entryX=0;entryY=0.5;entryDx=0;entryDy=0;fontSize=20;" parent="1" source="fFZW_oCPpxYMm6qtP-ck-29" target="fFZW_oCPpxYMm6qtP-ck-35" edge="1">
          <mxGeometry relative="1" as="geometry" />
        </mxCell>
        <mxCell id="fFZW_oCPpxYMm6qtP-ck-42" value="if fresh_user==FALSE" style="edgeStyle=orthogonalEdgeStyle;rounded=0;sketch=1;orthogonalLoop=1;jettySize=auto;html=1;exitX=1;exitY=1;exitDx=0;exitDy=0;entryX=0;entryY=0.5;entryDx=0;entryDy=0;fontSize=20;" parent="1" source="fFZW_oCPpxYMm6qtP-ck-29" target="fFZW_oCPpxYMm6qtP-ck-40" edge="1">
          <mxGeometry relative="1" as="geometry">
            <Array as="points">
              <mxPoint x="571" y="1098" />
            </Array>
          </mxGeometry>
        </mxCell>
        <mxCell id="fFZW_oCPpxYMm6qtP-ck-29" value="classes" style="ellipse;whiteSpace=wrap;html=1;shadow=0;glass=0;sketch=0;strokeColor=#f0f0f0;strokeWidth=3;fillColor=#2a2a2a;gradientColor=none;fontSize=20;align=center;" parent="1" vertex="1">
          <mxGeometry x="432" y="954" width="163" height="80" as="geometry" />
        </mxCell>
        <mxCell id="fFZW_oCPpxYMm6qtP-ck-30" value="todo" style="ellipse;whiteSpace=wrap;html=1;shadow=0;glass=0;sketch=0;strokeColor=#f0f0f0;strokeWidth=3;fillColor=#2a2a2a;gradientColor=none;fontSize=20;align=center;" parent="1" vertex="1">
          <mxGeometry x="54" y="954" width="163" height="80" as="geometry" />
        </mxCell>
        <mxCell id="fFZW_oCPpxYMm6qtP-ck-31" value="status" style="ellipse;whiteSpace=wrap;html=1;shadow=0;glass=0;sketch=0;strokeColor=#f0f0f0;strokeWidth=3;fillColor=#2a2a2a;gradientColor=none;fontSize=20;align=center;" parent="1" vertex="1">
          <mxGeometry x="229" y="1125" width="163" height="80" as="geometry" />
        </mxCell>
        <mxCell id="fFZW_oCPpxYMm6qtP-ck-55" style="edgeStyle=orthogonalEdgeStyle;rounded=0;sketch=1;orthogonalLoop=1;jettySize=auto;html=1;entryX=0.5;entryY=1;entryDx=0;entryDy=0;fontSize=20;" parent="1" source="fFZW_oCPpxYMm6qtP-ck-35" target="fFZW_oCPpxYMm6qtP-ck-36" edge="1">
          <mxGeometry relative="1" as="geometry" />
        </mxCell>
        <mxCell id="fFZW_oCPpxYMm6qtP-ck-35" value="available_classes" style="rounded=1;whiteSpace=wrap;html=1;strokeWidth=1;perimeterSpacing=0;shadow=0;sketch=0;glass=0;fontSize=20;labelBorderColor=none;fontStyle=0;horizontal=1;align=center;verticalAlign=middle;" parent="1" vertex="1">
          <mxGeometry x="846" y="900" width="180" height="72" as="geometry" />
        </mxCell>
        <mxCell id="DR5TsTOSP0Q5MDGVdr88-1" style="edgeStyle=orthogonalEdgeStyle;rounded=0;sketch=0;orthogonalLoop=1;jettySize=auto;html=1;exitX=0.5;exitY=0;exitDx=0;exitDy=0;entryX=0.412;entryY=1.042;entryDx=0;entryDy=0;entryPerimeter=0;shadow=1;labelBackgroundColor=#2A2A2A;" edge="1" parent="1" source="fFZW_oCPpxYMm6qtP-ck-36" target="fFZW_oCPpxYMm6qtP-ck-37">
          <mxGeometry relative="1" as="geometry" />
        </mxCell>
        <mxCell id="DR5TsTOSP0Q5MDGVdr88-3" style="edgeStyle=orthogonalEdgeStyle;rounded=0;sketch=0;orthogonalLoop=1;jettySize=auto;html=1;exitX=0.75;exitY=0;exitDx=0;exitDy=0;entryX=0;entryY=0.75;entryDx=0;entryDy=0;shadow=1;labelBackgroundColor=#2A2A2A;" edge="1" parent="1" source="fFZW_oCPpxYMm6qtP-ck-36" target="fFZW_oCPpxYMm6qtP-ck-39">
          <mxGeometry relative="1" as="geometry">
            <Array as="points">
              <mxPoint x="974" y="585" />
              <mxPoint x="1062" y="585" />
              <mxPoint x="1062" y="513" />
            </Array>
          </mxGeometry>
        </mxCell>
        <mxCell id="DR5TsTOSP0Q5MDGVdr88-4" style="edgeStyle=orthogonalEdgeStyle;rounded=0;sketch=0;orthogonalLoop=1;jettySize=auto;html=1;exitX=1;exitY=0.25;exitDx=0;exitDy=0;entryX=0;entryY=0.5;entryDx=0;entryDy=0;shadow=1;labelBackgroundColor=#2A2A2A;" edge="1" parent="1" source="fFZW_oCPpxYMm6qtP-ck-36" target="fFZW_oCPpxYMm6qtP-ck-56">
          <mxGeometry relative="1" as="geometry" />
        </mxCell>
        <mxCell id="DR5TsTOSP0Q5MDGVdr88-5" style="edgeStyle=orthogonalEdgeStyle;rounded=0;sketch=0;orthogonalLoop=1;jettySize=auto;html=1;exitX=1;exitY=0.75;exitDx=0;exitDy=0;entryX=0;entryY=0.5;entryDx=0;entryDy=0;shadow=1;labelBackgroundColor=#2A2A2A;" edge="1" parent="1" source="fFZW_oCPpxYMm6qtP-ck-36" target="fFZW_oCPpxYMm6qtP-ck-58">
          <mxGeometry relative="1" as="geometry" />
        </mxCell>
        <mxCell id="fFZW_oCPpxYMm6qtP-ck-36" value="classA" style="rounded=1;whiteSpace=wrap;html=1;strokeWidth=1;perimeterSpacing=0;shadow=0;sketch=0;glass=0;fontSize=20;labelBorderColor=none;fontStyle=0;horizontal=1;align=center;verticalAlign=middle;" parent="1" vertex="1">
          <mxGeometry x="859.5" y="657" width="153" height="72" as="geometry" />
        </mxCell>
        <mxCell id="fFZW_oCPpxYMm6qtP-ck-37" value="edit" style="rounded=1;whiteSpace=wrap;html=1;strokeWidth=1;perimeterSpacing=0;shadow=0;sketch=0;glass=0;fontSize=20;labelBorderColor=none;fontStyle=0;horizontal=1;align=center;verticalAlign=middle;" parent="1" vertex="1">
          <mxGeometry x="873" y="459" width="153" height="72" as="geometry" />
        </mxCell>
        <mxCell id="fFZW_oCPpxYMm6qtP-ck-39" value="members" style="rounded=1;whiteSpace=wrap;html=1;strokeWidth=1;perimeterSpacing=0;shadow=0;sketch=0;glass=0;fontSize=20;labelBorderColor=none;fontStyle=0;horizontal=1;align=center;verticalAlign=middle;" parent="1" vertex="1">
          <mxGeometry x="1098" y="459" width="153" height="72" as="geometry" />
        </mxCell>
        <mxCell id="fFZW_oCPpxYMm6qtP-ck-46" style="edgeStyle=orthogonalEdgeStyle;rounded=0;sketch=1;orthogonalLoop=1;jettySize=auto;html=1;exitX=0.25;exitY=1;exitDx=0;exitDy=0;entryX=0.5;entryY=0;entryDx=0;entryDy=0;fontSize=20;" parent="1" source="fFZW_oCPpxYMm6qtP-ck-40" target="fFZW_oCPpxYMm6qtP-ck-44" edge="1">
          <mxGeometry relative="1" as="geometry" />
        </mxCell>
        <mxCell id="fFZW_oCPpxYMm6qtP-ck-47" style="edgeStyle=orthogonalEdgeStyle;rounded=0;sketch=1;orthogonalLoop=1;jettySize=auto;html=1;exitX=0.75;exitY=1;exitDx=0;exitDy=0;entryX=0.5;entryY=0;entryDx=0;entryDy=0;fontSize=20;" parent="1" source="fFZW_oCPpxYMm6qtP-ck-40" target="fFZW_oCPpxYMm6qtP-ck-45" edge="1">
          <mxGeometry relative="1" as="geometry">
            <Array as="points">
              <mxPoint x="988" y="1179" />
              <mxPoint x="1067" y="1179" />
            </Array>
          </mxGeometry>
        </mxCell>
        <mxCell id="fFZW_oCPpxYMm6qtP-ck-40" value="fresher" style="rounded=1;whiteSpace=wrap;html=1;strokeWidth=1;perimeterSpacing=0;shadow=0;sketch=0;glass=0;fontSize=20;labelBorderColor=none;fontStyle=0;horizontal=1;align=center;verticalAlign=middle;" parent="1" vertex="1">
          <mxGeometry x="873" y="1062" width="153" height="72" as="geometry" />
        </mxCell>
        <mxCell id="fFZW_oCPpxYMm6qtP-ck-52" style="edgeStyle=orthogonalEdgeStyle;rounded=0;sketch=1;orthogonalLoop=1;jettySize=auto;html=1;entryX=1;entryY=0.5;entryDx=0;entryDy=0;fontSize=20;" parent="1" source="fFZW_oCPpxYMm6qtP-ck-44" target="fFZW_oCPpxYMm6qtP-ck-35" edge="1">
          <mxGeometry relative="1" as="geometry">
            <Array as="points">
              <mxPoint x="779" y="1368" />
              <mxPoint x="1170" y="1368" />
              <mxPoint x="1170" y="936" />
            </Array>
          </mxGeometry>
        </mxCell>
        <mxCell id="fFZW_oCPpxYMm6qtP-ck-44" value="create" style="rounded=1;whiteSpace=wrap;html=1;strokeWidth=1;perimeterSpacing=0;shadow=0;sketch=0;glass=0;fontSize=20;labelBorderColor=none;fontStyle=0;horizontal=1;align=center;verticalAlign=middle;" parent="1" vertex="1">
          <mxGeometry x="702" y="1233" width="153" height="72" as="geometry" />
        </mxCell>
        <mxCell id="fFZW_oCPpxYMm6qtP-ck-50" style="edgeStyle=orthogonalEdgeStyle;rounded=0;sketch=1;orthogonalLoop=1;jettySize=auto;html=1;exitX=0.75;exitY=0;exitDx=0;exitDy=0;entryX=0.75;entryY=1;entryDx=0;entryDy=0;fontSize=20;" parent="1" source="fFZW_oCPpxYMm6qtP-ck-45" target="fFZW_oCPpxYMm6qtP-ck-35" edge="1">
          <mxGeometry relative="1" as="geometry">
            <Array as="points">
              <mxPoint x="1105" y="1044" />
              <mxPoint x="981" y="1044" />
            </Array>
          </mxGeometry>
        </mxCell>
        <mxCell id="fFZW_oCPpxYMm6qtP-ck-45" value="join" style="rounded=1;whiteSpace=wrap;html=1;strokeWidth=1;perimeterSpacing=0;shadow=0;sketch=0;glass=0;fontSize=20;labelBorderColor=none;fontStyle=0;horizontal=1;align=center;verticalAlign=middle;" parent="1" vertex="1">
          <mxGeometry x="990" y="1242" width="153" height="72" as="geometry" />
        </mxCell>
        <mxCell id="fFZW_oCPpxYMm6qtP-ck-56" value="delete" style="rounded=1;whiteSpace=wrap;html=1;strokeWidth=1;perimeterSpacing=0;shadow=0;sketch=0;glass=0;fontSize=20;labelBorderColor=none;fontStyle=0;horizontal=1;align=center;verticalAlign=middle;" parent="1" vertex="1">
          <mxGeometry x="1107" y="603" width="153" height="72" as="geometry" />
        </mxCell>
        <mxCell id="fFZW_oCPpxYMm6qtP-ck-57" value="signup.py" style="rounded=1;whiteSpace=wrap;html=1;strokeWidth=1;perimeterSpacing=0;shadow=0;sketch=0;glass=0;fontSize=20;labelBorderColor=none;fontStyle=0;horizontal=1;align=center;verticalAlign=middle;" parent="1" vertex="1">
          <mxGeometry x="1656" y="450" width="153" height="72" as="geometry" />
        </mxCell>
        <mxCell id="fFZW_oCPpxYMm6qtP-ck-58" value="more" style="rounded=1;whiteSpace=wrap;html=1;strokeWidth=1;perimeterSpacing=0;shadow=0;sketch=0;glass=0;fontSize=20;labelBorderColor=none;fontStyle=0;horizontal=1;align=center;verticalAlign=middle;" parent="1" vertex="1">
          <mxGeometry x="1107" y="747" width="153" height="72" as="geometry" />
        </mxCell>
        <mxCell id="fFZW_oCPpxYMm6qtP-ck-59" value="signup.py" style="rounded=1;whiteSpace=wrap;html=1;strokeWidth=1;perimeterSpacing=0;shadow=0;sketch=0;glass=0;fontSize=20;labelBorderColor=none;fontStyle=0;horizontal=1;align=center;verticalAlign=middle;" parent="1" vertex="1">
          <mxGeometry x="1674" y="396" width="153" height="72" as="geometry" />
        </mxCell>
        <mxCell id="fFZW_oCPpxYMm6qtP-ck-60" value="signup.py" style="rounded=1;whiteSpace=wrap;html=1;strokeWidth=1;perimeterSpacing=0;shadow=0;sketch=0;glass=0;fontSize=20;labelBorderColor=none;fontStyle=0;horizontal=1;align=center;verticalAlign=middle;" parent="1" vertex="1">
          <mxGeometry x="1602" y="333" width="153" height="72" as="geometry" />
        </mxCell>
        <mxCell id="fFZW_oCPpxYMm6qtP-ck-61" value="signup.py" style="rounded=1;whiteSpace=wrap;html=1;strokeWidth=1;perimeterSpacing=0;shadow=0;sketch=0;glass=0;fontSize=20;labelBorderColor=none;fontStyle=0;horizontal=1;align=center;verticalAlign=middle;" parent="1" vertex="1">
          <mxGeometry x="1584" y="234" width="153" height="72" as="geometry" />
        </mxCell>
      </root>
    </mxGraphModel>
  </diagram>
</mxfile>
